<?xml version="1.0" encoding="utf-8"?>
<svg width="294px" height="186px" viewBox="0 0 294 186" version="1.1" xmlns:xlink="http://www.w3.org/1999/xlink" xmlns="http://www.w3.org/2000/svg">
  <defs>
    <rect width="294" height="186" id="artboard_1" />
    <clipPath id="clip_1">
      <use xlink:href="#artboard_1" clip-rule="evenodd" />
    </clipPath>
  </defs>
  <g id="3D引擎" clip-path="url(#clip_1)">
    <use xlink:href="#artboard_1" stroke="none" fill="#5677B2" />
    <g id="cube" transform="translate(100.50134 62.418335)">
      <path d="M59.0523 9.72274L77.8641 36.3626L36.4986 51.5817L19.8595 22.787L59.0523 9.72274Z" id="Rectangle" fill="#535353" fill-rule="evenodd" stroke="none" />
      <path d="M77.714 36.5916L77.7139 71.5601L36.4075 88.9791L36.4075 51.5283L77.714 36.5916Z" id="Rectangle-2" fill="#B9B9B9" fill-rule="evenodd" stroke="none" />
      <path d="M36.5258 51.528L36.5257 88.9788L19.8986 56.0816L19.8986 22.8816L36.5258 51.528Z" id="Rectangle-3" fill="#848484" fill-rule="evenodd" stroke="none" />
    </g>
    <g id="3D" fill="#FFFFFF" transform="matrix(1.0000004 7.063095E-09 -7.063095E-09 1.0000004 125.652954 5)">
      <path d="M18.5156 31.6641Q19.1992 30.1895 19.1992 28.5098Q19.1992 27.2988 18.7207 26.3027Q18.2422 25.3066 17.4707 24.5742Q16.6992 23.8418 15.7324 23.373Q14.7656 22.9043 13.7695 22.748Q15.7227 21.8691 16.8457 20.3848Q17.9688 18.9004 17.9688 16.7129Q17.9688 15.248 17.4414 14.0762Q16.9141 12.9043 15.8789 12.084Q14.8437 11.2637 13.3008 10.8242Q11.7578 10.3848 9.72656 10.3848Q9.04297 10.3848 8.30078 10.4531Q7.55859 10.5215 6.80664 10.6484Q6.05469 10.7754 5.30273 10.9609Q4.55078 11.1465 3.88672 11.3809L3.88672 14.3496Q5.44922 13.8418 6.81641 13.5879Q8.18359 13.334 9.47266 13.334Q11.8945 13.334 13.1445 14.2715Q14.3945 15.209 14.3945 17.2598Q14.3945 18.3145 14.0332 19.1445Q13.6719 19.9746 12.998 20.541Q12.3242 21.1074 11.377 21.4102Q10.4297 21.7129 9.27734 21.7129L6.32813 21.7129L6.32813 24.5059L9.23828 24.5059Q10.6445 24.5059 11.8262 24.7695Q13.0078 25.0332 13.8574 25.5605Q14.707 26.0879 15.1758 26.8691Q15.6445 27.6504 15.6445 28.7051Q15.6445 29.8574 15.2539 30.7754Q14.8633 31.6934 14.0039 32.3379Q13.1445 32.9824 11.7871 33.3242Q10.4297 33.666 8.51563 33.666Q7.10938 33.666 5.76172 33.5488Q4.41406 33.4316 3.20313 33.2168L3.20313 36.2637Q4.25781 36.4199 5.46875 36.5176Q6.67969 36.6152 8.20313 36.6152Q10.957 36.6152 13.0273 35.9805Q15.0977 35.3457 16.4648 34.2422Q17.832 33.1387 18.5156 31.6641ZM42.2754 26.7324Q42.5586 25.0527 42.5586 23.2168Q42.5586 16.8887 39.6191 13.8125Q36.6797 10.7363 30.7031 10.7363L24.1211 10.7363L24.1211 36.2637L29.5898 36.2637Q32.0313 36.2637 33.9453 35.8047Q35.8594 35.3457 37.3047 34.5059Q38.75 33.666 39.7461 32.4844Q40.7422 31.3027 41.3672 29.8574Q41.9922 28.4121 42.2754 26.7324ZM38.3984 18.8809Q38.9063 20.7559 38.9063 23.4707Q38.9063 33.2559 30.1953 33.2559L27.5977 33.2559L27.5977 13.666L30.5859 13.666Q32.6953 13.666 34.2578 14.1836Q35.8203 14.7012 36.8555 15.8535Q37.8906 17.0059 38.3984 18.8809Z" />
    </g>
  </g>
</svg>