<?xml version="1.0" encoding="utf-8"?>
<svg width="294px" height="186px" viewBox="0 0 294 186" version="1.1" xmlns:xlink="http://www.w3.org/1999/xlink" xmlns="http://www.w3.org/2000/svg">
  <defs>
    <filter filterUnits="userSpaceOnUse" color-interpolation-filters="sRGB" id="filter_1">
      <feFlood flood-opacity="0" result="BackgroundImageFix" />
      <feColorMatrix in="SourceAlpha" type="matrix" values="0 0 0 0 0 0 0 0 0 0 0 0 0 0 0 0 0 0 127 0" />
      <feMorphology radius="2" operator="dilate" in="SourceAlpha" result="effect0_dropShadow" />
      <feOffset dx="0" dy="0" />
      <feGaussianBlur stdDeviation="2.5" />
      <feColorMatrix type="matrix" values="0 0 0 0 0.39215687 0 0 0 0 0.39215687 0 0 0 0 0.39215687 0 0 0 0.49803922 0" />
      <feBlend mode="normal" in2="BackgroundImageFix" result="effect0_dropShadow" />
      <feBlend mode="normal" in="SourceGraphic" in2="effect0_dropShadow" result="shape" />
    </filter>
    <path d="M0 0L67 0L67 67L0 67L0 0Z" id="path_1" />
    <rect width="294" height="186" id="artboard_1" />
    <clipPath id="clip_1">
      <use xlink:href="#artboard_1" clip-rule="evenodd" />
    </clipPath>
    <clipPath id="mask_1">
      <use xlink:href="#path_1" />
    </clipPath>
  </defs>
  <g id="懒加载音乐" clip-path="url(#clip_1)">
    <use xlink:href="#artboard_1" stroke="none" fill="#0FBD8C" />
    <g id="icon" transform="translate(114.41034 38)">
      <path d="M0 0L67 0L67 67L0 67L0 0Z" id="Background" fill="none" fill-rule="evenodd" stroke="none" />
      <g clip-path="url(#mask_1)">
        <path d="M13.4 55.5891C6.12423 55.5891 0.261719 49.5172 0.261719 42.032C0.261719 34.7039 5.91484 28.6844 12.9812 28.475C13.2953 22.7172 17.9539 18.1633 23.607 18.1633C24.3922 18.1633 25.2297 18.268 25.9625 18.425C29.2601 13.1906 34.9656 9.68359 41.4562 9.68359C51.6109 9.68359 59.8289 18.1633 59.8289 28.6844C59.8289 29.1555 59.8289 29.6266 59.7766 30.0977C63.8594 32.4008 66.6336 36.85 66.6336 41.9797C66.6336 49.4648 60.7711 55.5367 53.4953 55.5367L13.4 55.5367L13.4 55.5891ZM36.3789 46.1672C30.9875 22.0367 31.982 28.8414 36.0648 29.9406C40.1476 31.0398 46.3766 24.7062 40.0953 25.7008C33.8141 26.6953 28.1086 15.1797 30.4117 28.7367C32.2961 39.6765 33.3953 42.189 32.4531 42.189C32.1391 42.032 31.7727 41.9273 31.4063 41.875C30.7258 41.718 30.0453 41.6133 29.3125 41.6133C25.9102 41.6133 23.607 43.6547 24.0781 46.1672C24.5492 48.6797 27.6898 50.7211 31.0922 50.7211C34.5469 50.7211 36.9023 48.732 36.3789 46.1672L36.3789 46.1672L36.3789 46.1672Z" id="Shape" fill="#FFFFFF" fill-rule="evenodd" stroke="none" />
      </g>
    </g>
    <g id="Group" transform="translate(142 136)">
      <path d="M1.33233 0L1.33433 0Q1.39979 0 1.46493 0.00641555Q1.53006 0.0128311 1.59426 0.0256004Q1.65845 0.0383697 1.72109 0.0573698Q1.78372 0.0763699 1.8442 0.101418Q1.90467 0.126466 1.96239 0.15732Q2.02012 0.188175 2.07454 0.224539Q2.12896 0.260903 2.17956 0.302426Q2.23015 0.343949 2.27644 0.390231Q2.32272 0.436514 2.36424 0.48711Q2.40576 0.537706 2.44213 0.592129Q2.47849 0.646551 2.50935 0.704276Q2.5402 0.762001 2.56525 0.822472Q2.5903 0.882943 2.6093 0.945578Q2.6283 1.00821 2.64107 1.07241Q2.65384 1.1366 2.66025 1.20174Q2.66667 1.26688 2.66667 1.33233L2.66667 11.6677Q2.66667 11.7331 2.66025 11.7983Q2.65384 11.8634 2.64107 11.9276Q2.6283 11.9918 2.6093 12.0544Q2.5903 12.1171 2.56525 12.1775Q2.5402 12.238 2.50935 12.2957Q2.47849 12.3534 2.44213 12.4079Q2.40576 12.4623 2.36424 12.5129Q2.32272 12.5635 2.27644 12.6098Q2.23015 12.656 2.17956 12.6976Q2.12896 12.7391 2.07454 12.7755Q2.02012 12.8118 1.96239 12.8427Q1.90467 12.8735 1.8442 12.8986Q1.78372 12.9236 1.72109 12.9426Q1.65845 12.9616 1.59426 12.9744Q1.53006 12.9872 1.46493 12.9936Q1.39979 13 1.33433 13L1.33233 13Q1.26688 13 1.20174 12.9936Q1.1366 12.9872 1.07241 12.9744Q1.00821 12.9616 0.945578 12.9426Q0.882943 12.9236 0.822472 12.8986Q0.762001 12.8735 0.704276 12.8427Q0.646551 12.8118 0.592129 12.7755Q0.537706 12.7391 0.48711 12.6976Q0.436514 12.656 0.390231 12.6098Q0.343949 12.5635 0.302426 12.5129Q0.260903 12.4623 0.224539 12.4079Q0.188175 12.3534 0.15732 12.2957Q0.126466 12.238 0.101418 12.1775Q0.0763699 12.1171 0.0573698 12.0544Q0.0383697 11.9918 0.0256004 11.9276Q0.0128311 11.8634 0.00641555 11.7983Q0 11.7331 0 11.6677L0 1.33233Q0 1.26688 0.00641555 1.20174Q0.0128311 1.1366 0.0256004 1.07241Q0.0383697 1.00821 0.0573698 0.945578Q0.0763699 0.882943 0.101418 0.822472Q0.126466 0.762001 0.15732 0.704276Q0.188175 0.646551 0.224539 0.592129Q0.260903 0.537706 0.302426 0.48711Q0.343949 0.436514 0.390231 0.390231Q0.436514 0.343949 0.48711 0.302426Q0.537706 0.260903 0.592129 0.224539Q0.646551 0.188175 0.704276 0.15732Q0.762001 0.126466 0.822472 0.101418Q0.882943 0.0763699 0.945578 0.0573698Q1.00821 0.0383697 1.07241 0.0256004Q1.1366 0.0128311 1.20174 0.00641555Q1.26688 0 1.33233 0Z" id="Rectangle-2" fill="#FFFFFF" fill-rule="evenodd" stroke="none" />
      <path d="M8.66566 0L8.66766 0Q8.73312 0 8.79825 0.00641555Q8.86339 0.0128311 8.92759 0.0256004Q8.99178 0.0383697 9.05442 0.0573698Q9.11705 0.0763699 9.17752 0.101418Q9.238 0.126466 9.29572 0.15732Q9.35345 0.188175 9.40787 0.224539Q9.46229 0.260903 9.51289 0.302426Q9.56348 0.343949 9.60976 0.390232Q9.65605 0.436514 9.69757 0.48711Q9.73909 0.537706 9.77546 0.592129Q9.81182 0.646551 9.84268 0.704276Q9.87353 0.762001 9.89858 0.822472Q9.92363 0.882943 9.94263 0.945578Q9.96163 1.00821 9.97439 1.07241Q9.98716 1.1366 9.99358 1.20174Q10 1.26688 10 1.33233L10 11.6677Q10 11.7331 9.99358 11.7983Q9.98716 11.8634 9.97439 11.9276Q9.96163 11.9918 9.94263 12.0544Q9.92363 12.1171 9.89858 12.1775Q9.87353 12.238 9.84268 12.2957Q9.81182 12.3534 9.77546 12.4079Q9.73909 12.4623 9.69757 12.5129Q9.65605 12.5635 9.60976 12.6098Q9.56348 12.656 9.51289 12.6976Q9.46229 12.7391 9.40787 12.7755Q9.35345 12.8118 9.29572 12.8427Q9.238 12.8735 9.17752 12.8986Q9.11705 12.9236 9.05442 12.9426Q8.99178 12.9616 8.92759 12.9744Q8.86339 12.9872 8.79825 12.9936Q8.73312 13 8.66766 13L8.66566 13Q8.60021 13 8.53507 12.9936Q8.46993 12.9872 8.40574 12.9744Q8.34154 12.9616 8.27891 12.9426Q8.21627 12.9236 8.1558 12.8986Q8.09533 12.8735 8.0376 12.8427Q7.97988 12.8118 7.92546 12.7755Q7.87103 12.7391 7.82044 12.6976Q7.76984 12.656 7.72356 12.6098Q7.67728 12.5635 7.63575 12.5129Q7.59423 12.4623 7.55787 12.4079Q7.5215 12.3534 7.49065 12.2957Q7.45979 12.238 7.43475 12.1775Q7.4097 12.1171 7.3907 12.0544Q7.3717 11.9918 7.35893 11.9276Q7.34616 11.8634 7.33974 11.7983Q7.33333 11.7331 7.33333 11.6677L7.33333 1.33233Q7.33333 1.26688 7.33974 1.20174Q7.34616 1.1366 7.35893 1.07241Q7.3717 1.00821 7.3907 0.945578Q7.4097 0.882943 7.43475 0.822472Q7.45979 0.762001 7.49065 0.704276Q7.5215 0.646551 7.55787 0.592129Q7.59423 0.537706 7.63575 0.48711Q7.67728 0.436514 7.72356 0.390232Q7.76984 0.343949 7.82044 0.302426Q7.87103 0.260903 7.92546 0.224539Q7.97988 0.188175 8.0376 0.15732Q8.09533 0.126466 8.1558 0.101418Q8.21627 0.0763699 8.2789 0.0573698Q8.34154 0.0383697 8.40574 0.0256004Q8.46993 0.0128311 8.53507 0.00641555Q8.60021 0 8.66566 0Z" id="Rectangle-3" fill="#FFFFFF" fill-rule="evenodd" stroke="none" />
    </g>
    <path d="M85.499 115L208.501 115Q208.624 115 208.746 115.012Q208.868 115.024 208.989 115.048Q209.109 115.072 209.226 115.108Q209.344 115.143 209.457 115.19Q209.571 115.237 209.679 115.295Q209.787 115.353 209.889 115.421Q209.991 115.489 210.086 115.567Q210.181 115.645 210.268 115.732Q210.355 115.819 210.433 115.914Q210.511 116.009 210.579 116.111Q210.647 116.213 210.705 116.321Q210.763 116.429 210.81 116.543Q210.857 116.656 210.892 116.774Q210.928 116.891 210.952 117.011Q210.976 117.132 210.988 117.254Q211 117.376 211 117.499L211 117.501Q211 117.624 210.988 117.746Q210.976 117.868 210.952 117.989Q210.928 118.109 210.892 118.226Q210.857 118.344 210.81 118.457Q210.763 118.571 210.705 118.679Q210.647 118.787 210.579 118.889Q210.511 118.991 210.433 119.086Q210.355 119.181 210.268 119.268Q210.181 119.355 210.086 119.433Q209.991 119.511 209.889 119.579Q209.787 119.647 209.679 119.705Q209.571 119.763 209.457 119.81Q209.344 119.857 209.226 119.892Q209.109 119.928 208.989 119.952Q208.868 119.976 208.746 119.988Q208.624 120 208.501 120L85.499 120Q85.3762 120 85.2541 119.988Q85.1319 119.976 85.0115 119.952Q84.8911 119.928 84.7736 119.892Q84.6561 119.857 84.5427 119.81Q84.4292 119.763 84.321 119.705Q84.2127 119.647 84.1106 119.579Q84.0085 119.511 83.9137 119.433Q83.8187 119.355 83.7319 119.268Q83.6451 119.181 83.5672 119.086Q83.4894 118.991 83.4211 118.889Q83.3529 118.787 83.2951 118.679Q83.2372 118.571 83.1902 118.457Q83.1432 118.344 83.1076 118.226Q83.072 118.109 83.048 117.989Q83.0241 117.868 83.012 117.746Q83 117.624 83 117.501L83 117.499Q83 117.376 83.012 117.254Q83.0241 117.132 83.048 117.011Q83.072 116.891 83.1076 116.774Q83.1432 116.656 83.1902 116.543Q83.2372 116.429 83.2951 116.321Q83.3529 116.213 83.4211 116.111Q83.4894 116.009 83.5672 115.914Q83.6451 115.819 83.7319 115.732Q83.8187 115.645 83.9137 115.567Q84.0085 115.489 84.1106 115.421Q84.2127 115.353 84.321 115.295Q84.4292 115.237 84.5427 115.19Q84.6561 115.143 84.7736 115.108Q84.8911 115.072 85.0115 115.048Q85.1319 115.024 85.2541 115.012Q85.3762 115 85.499 115Z" id="Rectangle" fill="#FFFFFF" fill-rule="evenodd" stroke="none" />
    <path d="M85.499 116L155.501 116Q155.575 116 155.648 116.007Q155.721 116.014 155.793 116.029Q155.866 116.043 155.936 116.065Q156.007 116.086 156.075 116.114Q156.143 116.142 156.208 116.177Q156.273 116.212 156.334 116.253Q156.395 116.294 156.452 116.34Q156.509 116.387 156.561 116.439Q156.613 116.491 156.66 116.548Q156.706 116.605 156.747 116.666Q156.788 116.727 156.823 116.792Q156.858 116.857 156.886 116.925Q156.914 116.993 156.935 117.064Q156.957 117.134 156.971 117.207Q156.986 117.279 156.993 117.352Q157 117.425 157 117.499L157 117.501Q157 117.575 156.993 117.648Q156.986 117.721 156.971 117.793Q156.957 117.866 156.935 117.936Q156.914 118.007 156.886 118.075Q156.858 118.143 156.823 118.208Q156.788 118.273 156.747 118.334Q156.706 118.395 156.66 118.452Q156.613 118.509 156.561 118.561Q156.509 118.613 156.452 118.66Q156.395 118.706 156.334 118.747Q156.273 118.788 156.208 118.823Q156.143 118.858 156.075 118.886Q156.007 118.914 155.936 118.935Q155.866 118.957 155.793 118.971Q155.721 118.986 155.648 118.993Q155.575 119 155.501 119L85.499 119Q85.4254 119 85.3521 118.993Q85.2788 118.986 85.2066 118.971Q85.1343 118.957 85.0639 118.935Q84.9934 118.914 84.9253 118.886Q84.8573 118.858 84.7924 118.823Q84.7274 118.788 84.6662 118.747Q84.605 118.706 84.548 118.66Q84.4911 118.613 84.439 118.561Q84.387 118.509 84.3403 118.452Q84.2935 118.395 84.2526 118.334Q84.2117 118.273 84.177 118.208Q84.1423 118.143 84.1141 118.075Q84.0859 118.007 84.0645 117.936Q84.0432 117.866 84.0288 117.793Q84.0144 117.721 84.0072 117.648Q84 117.575 84 117.501L84 117.499Q84 117.425 84.0072 117.352Q84.0144 117.279 84.0288 117.207Q84.0432 117.134 84.0645 117.064Q84.0859 116.993 84.1141 116.925Q84.1423 116.857 84.177 116.792Q84.2117 116.727 84.2526 116.666Q84.2935 116.605 84.3403 116.548Q84.387 116.491 84.439 116.439Q84.4911 116.387 84.548 116.34Q84.605 116.294 84.6662 116.253Q84.7274 116.212 84.7924 116.177Q84.8573 116.142 84.9253 116.114Q84.9934 116.086 85.0639 116.065Q85.1343 116.043 85.2066 116.029Q85.2788 116.014 85.3521 116.007Q85.4254 116 85.499 116Z" id="Rectangle-2" fill="#1B95FF" fill-rule="evenodd" stroke="none" />
    <path d="M152 117C152 114.239 154.239 112 157 112C159.761 112 162 114.239 162 117C162 119.761 159.761 122 157 122C154.239 122 152 119.761 152 117Z" id="Ellipse" fill="#43A0FE" fill-rule="evenodd" stroke="none" filter="url(#filter_1)" />
  </g>
</svg>