<?xml version="1.0" encoding="utf-8"?>
<svg width="39.100006px" height="37.815063px" viewBox="0 0 39.100006 37.815063" version="1.1" xmlns:xlink="http://www.w3.org/1999/xlink" xmlns="http://www.w3.org/2000/svg">
  <path d="M4.60727 36.5904L9.53131 37.3407L10.662 31.8L23.7834 31.8L22.709 37.0648L27.633 37.815L28.8605 31.8L35 31.8L35 26.8L29.8808 26.8L33.4316 9.40002L39.1 9.40002L39.1 4.40002L34.452 4.40002L35.1 1.2246L30.1759 0.474396L29.3748 4.40002L16.2534 4.40002L16.9982 0.750206L12.0742 0L11.1763 4.40002L4.10001 4.40002L4.10001 9.40002L10.156 9.40002L6.60518 26.8L0 26.8L0 31.8L5.58484 31.8L4.60727 36.5904ZM12.9585 24.0503Q14.0264 26.1245 16.1621 27.9351L17.4365 26.6343Q15.7227 25.1138 14.8613 23.2725Q14 21.4312 14 19.436Q14 17.4673 14.8613 15.6831Q15.7227 13.8989 17.4365 12.3608L16.2148 11.1392Q15.2656 11.939 14.4702 12.8574Q13.6748 13.7759 13.0991 14.8218Q12.5234 15.8677 12.207 17.0586Q11.8906 18.2495 11.8906 19.5854Q11.8906 21.9761 12.9585 24.0503ZM25.8828 15.0107Q24.8281 12.9321 22.6748 11.1392L21.4092 12.4136Q23.1318 13.9429 23.9932 15.7886Q24.8545 17.6343 24.8545 19.6206Q24.8545 21.5894 23.9932 23.3823Q23.1318 25.1753 21.4092 26.7134L22.6396 27.9351Q23.5889 27.144 24.3799 26.2256Q25.1709 25.3071 25.7378 24.2524Q26.3047 23.1978 26.6211 22.0112Q26.9375 20.8247 26.9375 19.4888Q26.9375 17.0894 25.8828 15.0107Z" id="Group-Xor" fill="#FFFFFF" fill-rule="evenodd" stroke="none" />
</svg>