<?xml version="1.0" encoding="utf-8"?>
<svg width="294px" height="186px" viewBox="0 0 294 186" version="1.1" xmlns:xlink="http://www.w3.org/1999/xlink" xmlns="http://www.w3.org/2000/svg">
  <defs>
    <rect width="294" height="186" id="artboard_1" />
    <clipPath id="clip_1">
      <use xlink:href="#artboard_1" clip-rule="evenodd" />
    </clipPath>
  </defs>
  <g id="算数" clip-path="url(#clip_1)">
    <use xlink:href="#artboard_1" stroke="none" fill="#C4DB42" />
    <g id="Math" fill="#FFFFFF" transform="translate(108 37)">
      <path d="M73.3184 32.4873L76.377 32.4873L76.377 20.9736Q76.377 17.7393 74.9355 16.1309Q73.4941 14.5225 70.8574 14.5225Q70.084 14.5225 69.3633 14.6807Q68.6426 14.8389 67.9482 15.208Q67.2539 15.5771 66.5596 16.166Q65.8652 16.7549 65.1445 17.6162L65.25 14.8389L65.25 7.64941L62.1914 7.64941L62.1914 32.4873L65.25 32.4873L65.25 20.7803Q66.1465 19.7256 66.832 19.0225Q67.5176 18.3193 68.0977 17.9063Q68.6777 17.4932 69.2139 17.3262Q69.75 17.1592 70.3652 17.1592Q71.7891 17.1592 72.5537 18.1699Q73.3184 19.1807 73.3184 21.2197L73.3184 32.4873ZM56.6191 32.2412Q55.582 32.5049 54.4746 32.6191Q53.3672 32.7334 52.2246 32.7334Q48.9023 32.7334 47.2676 31.2305Q45.6328 29.7275 45.6328 26.6162L45.6328 17.4053L40.6934 17.4053L40.6934 14.8389L45.6328 14.8389L45.6328 9.9873L48.6914 9.19629L48.6914 14.8389L56.6191 14.8389L56.6191 17.4053L48.6914 17.4053L48.6914 26.3701Q48.6914 28.2686 49.7021 29.209Q50.7129 30.1494 52.6816 30.1494Q53.5254 30.1494 54.5273 30.0176Q55.5293 29.8857 56.6191 29.6045L56.6191 32.2412ZM15.873 32.4873L18.9316 32.4873L17.8242 9.5127L14.0098 9.5127L10.7578 18.1611L9.79102 21.0791L8.78906 18.1611L5.69531 9.5127L1.98633 9.5127L0.861328 32.4873L3.81445 32.4873L4.21875 18.4072L4.28906 12.6592L5.36133 16.21L8.5957 24.999L10.7578 24.999L14.1504 15.8584L15.2227 12.6592L15.416 18.1611L15.873 32.4873ZM33.873 30.1143L33.9434 32.4873L36.6855 32.4873L36.6855 20.3232Q36.6855 18.8467 36.2109 17.7568Q35.7363 16.667 34.8486 15.9463Q33.9609 15.2256 32.6777 14.874Q31.3945 14.5225 29.7949 14.5225Q28.916 14.5225 28.0547 14.6191Q27.1934 14.7158 26.4023 14.874Q25.6113 15.0322 24.8994 15.2344Q24.1875 15.4365 23.6074 15.6475L23.6074 18.4072Q25.1543 17.792 26.6045 17.458Q28.0547 17.124 29.5488 17.124Q31.6055 17.124 32.6074 18.0645Q33.6094 19.0049 33.6094 20.5693L33.6094 22.1162L29.9531 22.1162Q26.0859 22.1162 24.1084 23.6191Q22.1309 25.1221 22.1309 27.7764Q22.1309 28.8486 22.4561 29.7627Q22.7813 30.6768 23.4756 31.3535Q24.1699 32.0303 25.2422 32.417Q26.3145 32.8037 27.8262 32.8037Q29.4609 32.8037 30.9463 32.1709Q32.4316 31.5381 33.873 30.1143ZM29.7246 24.4541L33.6094 24.4541L33.6094 27.583Q32.0977 28.9717 30.7354 29.6133Q29.373 30.2549 28.3184 30.2549Q27.5098 30.2549 26.9473 30.0439Q26.3848 29.833 26.0332 29.4727Q25.6816 29.1123 25.5234 28.6465Q25.3652 28.1807 25.3652 27.6709Q25.3652 26.9326 25.6201 26.3438Q25.875 25.7549 26.4023 25.333Q26.9297 24.9111 27.7559 24.6826Q28.582 24.4541 29.7246 24.4541Z" />
    </g>
    <path d="M133.007 140.59L137.931 141.341L139.062 135.8L152.183 135.8L151.109 141.065L156.033 141.815L157.26 135.8L163.4 135.8L163.4 130.8L158.281 130.8L161.832 113.4L167.5 113.4L167.5 108.4L162.852 108.4L163.5 105.225L158.576 104.474L157.775 108.4L144.653 108.4L145.398 104.75L140.474 104L139.576 108.4L132.5 108.4L132.5 113.4L138.556 113.4L135.005 130.8L128.4 130.8L128.4 135.8L133.985 135.8L133.007 140.59ZM141.358 128.05Q142.426 130.125 144.562 131.935L145.837 130.634Q144.123 129.114 143.261 127.272Q142.4 125.431 142.4 123.436Q142.4 121.467 143.261 119.683Q144.123 117.899 145.837 116.361L144.615 115.139Q143.666 115.939 142.87 116.857Q142.075 117.776 141.499 118.822Q140.923 119.868 140.607 121.059Q140.291 122.25 140.291 123.585Q140.291 125.976 141.358 128.05ZM154.283 119.011Q153.228 116.932 151.075 115.139L149.809 116.414Q151.532 117.943 152.393 119.789Q153.254 121.634 153.254 123.621Q153.254 125.589 152.393 127.382Q151.532 129.175 149.809 130.713L151.04 131.935Q151.989 131.144 152.78 130.226Q153.571 129.307 154.138 128.252Q154.705 127.198 155.021 126.011Q155.337 124.825 155.337 123.489Q155.337 121.089 154.283 119.011Z" id="Group-Xor" fill="#FFFFFF" fill-rule="evenodd" stroke="none" />
  </g>
</svg>